<?xml version="1.0" standalone="no"?><!DOCTYPE svg PUBLIC "-//W3C//DTD SVG 1.1//EN" "http://www.w3.org/Graphics/SVG/1.1/DTD/svg11.dtd"><svg t="1531895298584" class="icon" style="" viewBox="0 0 1024 1024" version="1.1" xmlns="http://www.w3.org/2000/svg" p-id="854" xmlns:xlink="http://www.w3.org/1999/xlink" width="16" height="16"><defs><style type="text/css"></style></defs><path d="M319.128361 927.189012h385.378489a22.241521 22.241521 0 0 1 21.641353 22.453345v22.453346a22.241521 22.241521 0 0 1-21.641353 22.453345H319.128361a22.241521 22.241521 0 0 1-21.641354-22.453345V949.677661a22.241521 22.241521 0 0 1 21.641354-22.453345zM768.830742 158.197234H254.804469c-23.653682 0-42.682539 20.441017-42.682539 45.612771V384.813625c0 25.171754 19.064161 45.612771 42.682539 45.612771h514.026273c23.653682 0 42.682539-20.441017 42.682539-45.612771V203.810005c0-25.171754-19.064161-45.612771-42.717843-45.612771z m95.850366 860.182016l-87.977574-160.597907a123.811136 123.811136 0 0 1-22.312129 2.047633H269.914582c-7.908097 0-15.110113-0.70608-22.347434-2.047633l-87.942269 160.633211c-11.191369 20.370409-81.411029-22.488649-70.254965-42.894363l82.046501-149.724274c-43.318011-32.656202-69.548884-87.094974-65.665444-147.676641l30.891002-487.26584c5.260296-81.658157 55.144852-146.299785 139.803849-146.299785h128.683088L425.887664 0h171.577451l21.676657 44.553651h149.68897c85.329774 0 112.902199 64.641628 118.162496 146.299785l30.855698 487.26584c3.918744 60.581668-22.312129 115.020439-65.665445 147.676641l82.081806 149.68897c11.156065 21.111793-58.428124 63.300076-69.584189 42.894363zM760.004741 484.794559c-39.081531 0-70.961045 31.879514-70.961044 70.890437 0 38.975619 31.879514 70.855133 70.961044 70.855132 39.081531 0 70.961045-31.879514 70.961045-70.855132a71.066957 71.066957 0 0 0-70.961045-70.890437zM263.559861 626.540128c39.081531 0 70.961045-31.879514 70.961045-70.855132a71.066957 71.066957 0 0 0-70.961045-70.890437c-39.081531 0-70.961045 31.879514-70.961044 70.890437 0.70608 38.975619 31.879514 70.855133 70.961044 70.855132z" fill="#59A5F3" p-id="855"></path></svg>